<svg width="29" height="30" viewBox="0 0 29 30" fill="none" xmlns="http://www.w3.org/2000/svg">
<circle cx="14.6041" cy="14.9363" r="14.2525" fill="#DBD9EE"/>
<path d="M17.7264 8.27674C15.6628 7.93078 13.5449 7.93078 11.4813 8.27674C10.7274 8.40313 10.127 8.98191 9.97582 9.73235C9.28331 13.1703 9.24553 16.708 9.86445 20.16L10.1164 21.5654C10.1941 21.9988 10.7224 22.172 11.0416 21.8687L14.0832 18.9792C14.375 18.7021 14.8327 18.7021 15.1245 18.9792L18.166 21.8687C18.4852 22.172 19.0135 21.9988 19.0912 21.5654L19.3432 20.16C19.9621 16.708 19.9244 13.1703 19.2319 9.73235C19.0807 8.98191 18.4803 8.40313 17.7264 8.27674Z" fill="#6C5FBC"/>
</svg>
